<svg width="32" height="32" xmlns="http://www.w3.org/2000/svg">

 <g>
  <title>background</title>
  <rect fill="none" id="canvas_background" height="402" width="582" y="-1" x="-1"/>
 </g>
 <g>
  <title>Layer 1</title>
  <path id="svg_2" fill="#4391B2" d="m27,7l0,4c0,0.55 -0.450001,1 -1,1l-14,0c-0.41,0 -0.78,-0.25 -0.93,-0.63l-1.599999,-4c-0.12,-0.31 -0.08,-0.66 0.099999,-0.93c0.190001,-0.27 0.5,-0.44 0.83,-0.44l15.6,0c0.549999,0 1,0.45 1,1z"/>
  <path id="svg_4" fill="#48B1DD" d="m31,11l0,15c0,0.549999 -0.450001,1 -1,1l-28,0c-0.55,0 -1,-0.450001 -1,-1l0,-20c0,-0.55 0.45,-1 1,-1l8,0c0.41,0 0.78,0.25 0.93,0.63l0.15,0.37l1.6,4l17.32,0c0.549999,0 1,0.45 1,1z"/>
  <path id="svg_6" fill="#96CEE5" d="m31,20l0,2l-12,0c-0.549999,0 -1,-0.450001 -1,-1s0.450001,-1 1,-1l12,0z"/>
  <path id="svg_8" fill="#96CEE5" d="m31,16l0,2l-9,0c-0.549999,0 -1,-0.450001 -1,-1s0.450001,-1 1,-1l9,0z"/>
 </g>
</svg>